<svg xmlns="http://www.w3.org/2000/svg" width="633" height="101" viewBox="0 0 633 101" fill="none"><path d="M288.654 14.532C288.175 15.733 287.817 16.9783 287.581 18.25H296.178C295.945 16.9783 295.584 15.733 295.105 14.532C294.622 13.3574 294.066 12.4587 293.489 11.8672C292.915 11.2772 292.372 11.0388 291.881 11.0388C291.389 11.0388 290.844 11.2772 290.272 11.8672C289.695 12.4603 289.139 13.3574 288.654 14.532ZM288.501 11.4887C287.998 12.1716 287.556 12.9969 287.174 13.9215C286.661 15.1719 286.244 16.6361 285.954 18.25H280.349C281.15 16.6087 282.291 15.1564 283.695 13.9907C285.101 12.8248 286.74 11.9721 288.501 11.4887ZM295.261 11.4887C295.763 12.1716 296.207 12.9969 296.588 13.9215C297.101 15.1719 297.517 16.6361 297.808 18.25H303.413C302.611 16.6087 301.471 15.1564 300.065 13.9907C298.658 12.8248 297.024 11.9721 295.261 11.4887ZM304.062 19.853H298.049C298.207 21.1266 298.291 22.4713 298.291 23.8594C298.291 25.2467 298.207 26.5915 298.049 27.8656H304.062C304.487 26.5725 304.703 25.2197 304.701 23.8594C304.701 22.4983 304.487 21.1462 304.062 19.853ZM303.413 29.4681H297.808C297.517 31.082 297.101 32.5483 296.588 33.795C296.244 34.6569 295.8 35.4744 295.261 36.2293C297.022 35.746 298.661 34.8933 300.067 33.7273C301.471 32.5612 302.611 31.1094 303.413 29.4681ZM291.881 36.6798C292.372 36.6798 292.915 36.4408 293.489 35.8509C294.066 35.2578 294.622 34.3607 295.105 33.1861C295.584 31.9851 295.945 30.7398 296.178 29.4681H287.581C287.851 30.8675 288.218 32.1234 288.656 33.1861C289.14 34.3607 289.695 35.2599 290.272 35.8509C290.844 36.4408 291.389 36.6798 291.881 36.6798ZM288.498 36.2293C286.738 35.746 285.101 34.8928 283.697 33.7268C282.291 32.5612 281.15 31.1094 280.351 29.4681H285.954C286.246 31.082 286.661 32.5483 287.175 33.795C287.556 34.7211 287.998 35.5467 288.503 36.2293H288.498ZM279.699 27.8656H285.71C285.55 26.5366 285.468 25.1985 285.47 23.8594C285.47 22.4713 285.554 21.1266 285.71 19.853H279.697C279.274 21.1456 279.058 22.4983 279.06 23.8594C279.06 25.2583 279.286 26.6043 279.699 27.8656ZM287.073 23.8594C287.073 22.4567 287.163 21.1108 287.325 19.853H296.434C296.599 21.1108 296.688 22.4567 296.688 23.8594C296.688 25.2613 296.599 26.6059 296.434 27.8656H287.325C287.156 26.5371 287.071 25.1988 287.073 23.8594Z" fill="#3F60B6"></path><path d="M0 100.782H309.188V57.8334H0V100.782Z" fill="#ED1A2D"></path><path d="M72.4784 65.9459L67.971 91.1863C67.8712 91.687 67.6459 92.1188 67.2952 92.482C66.9446 92.845 66.5186 93.0766 66.0178 93.1767C65.5046 93.2639 65.0164 93.2081 64.5531 93.0075C64.1022 92.8071 63.7457 92.4945 63.4829 92.0686L54.5436 77.3829L45.5853 92.0686C45.3728 92.4315 45.0786 92.7134 44.7025 92.914C44.34 93.1139 43.9454 93.2142 43.5196 93.2142C42.9311 93.2142 42.4113 93.0266 41.9609 92.6506C41.5102 92.2755 41.2348 91.7868 41.1345 91.1863L36.5896 65.9459H41.5474L44.7778 83.7302L52.4777 71.4483C52.6907 71.0853 52.9784 70.8036 53.3416 70.6032C53.7172 70.4026 54.1177 70.3023 54.5436 70.3023C54.9694 70.3023 55.3635 70.4026 55.7265 70.6032C56.0896 70.8036 56.3903 71.0853 56.6278 71.4483L64.2903 83.7302L67.5206 65.9459H72.4784ZM123.551 81.9836C123.551 83.624 123.27 85.1326 122.706 86.5097C122.143 87.8866 121.359 89.0767 120.358 90.0781C119.357 91.0796 118.167 91.8621 116.791 92.4256C115.425 92.9763 113.936 93.252 112.321 93.252H105.71C104.095 93.252 102.599 92.9763 101.222 92.4256C99.8445 91.8621 98.655 91.0796 97.6535 90.0781C96.6522 89.0767 95.8631 87.8866 95.2871 86.5097C94.7235 85.1326 94.4422 83.624 94.4422 81.9836V76.8381C94.4422 75.2103 94.7235 73.7081 95.2871 72.3307C95.8631 70.9413 96.6522 69.7517 97.6535 68.7628C98.655 67.7613 99.8445 66.9787 101.222 66.4152C102.599 65.8516 104.095 65.5697 105.71 65.5697H112.321C113.936 65.5697 115.425 65.8516 116.791 66.4152C118.167 66.9787 119.357 67.7613 120.358 68.7628C121.359 69.7517 122.143 70.9413 122.706 72.3307C123.27 73.7081 123.551 75.2103 123.551 76.8381V81.9836ZM118.668 76.8381C118.668 75.8741 118.512 75.004 118.199 74.2279C117.898 73.4388 117.466 72.7692 116.903 72.2179C116.352 71.6549 115.682 71.223 114.894 70.9223C114.117 70.6097 113.259 70.4528 112.321 70.4528H105.71C104.759 70.4528 103.888 70.6097 103.1 70.9223C102.324 71.223 101.653 71.6549 101.09 72.2179C100.527 72.7692 100.088 73.4388 99.7757 74.2279C99.475 75.004 99.3247 75.8741 99.3247 76.8381V81.9836C99.3247 82.9477 99.475 83.8245 99.7757 84.613C100.088 85.3895 100.527 86.0593 101.09 86.6223C101.653 87.1736 102.324 87.6054 103.1 87.9181C103.888 88.2187 104.759 88.3689 105.71 88.3689H112.283C113.235 88.3689 114.098 88.2187 114.875 87.9181C115.663 87.6054 116.34 87.1736 116.903 86.6223C117.466 86.0593 117.898 85.3895 118.199 84.613C118.512 83.8245 118.668 82.9477 118.668 81.9836V76.8381ZM174.135 74.9974C174.135 76.112 173.998 77.1069 173.722 77.9838C173.447 78.86 173.071 79.6362 172.596 80.3125C172.132 80.9762 171.594 81.5458 170.981 82.021C170.368 82.4973 169.723 82.8915 169.047 83.2047C168.382 83.5053 167.708 83.7242 167.017 83.862C166.342 83.9996 165.703 84.0684 165.103 84.0684L175.299 92.876H167.75L157.571 84.0684H154.06V79.1857H165.103C165.716 79.1354 166.274 79.0102 166.774 78.8103C167.287 78.5972 167.725 78.3155 168.088 77.9648C168.464 77.6142 168.753 77.1948 168.953 76.7066C169.152 76.2059 169.252 75.6363 169.252 74.9974V71.9178C169.252 71.6424 169.216 71.4355 169.139 71.2977C169.077 71.1477 168.989 71.0409 168.876 70.9786C168.778 70.9038 168.665 70.8599 168.539 70.8469C168.425 70.8346 168.321 70.8285 168.22 70.8285H152.107V92.876H147.225V68.4061C147.225 68.0674 147.287 67.7483 147.413 67.4481C147.536 67.1473 147.706 66.8845 147.919 66.6595C148.143 66.4336 148.406 66.2586 148.707 66.1335C149.009 66.0082 149.333 65.9459 149.684 65.9459H168.22C169.31 65.9459 170.229 66.1458 170.981 66.5464C171.731 66.9349 172.34 67.4292 172.802 68.0302C173.278 68.6187 173.616 69.2569 173.817 69.9457C174.03 70.6344 174.135 71.2793 174.135 71.8798V74.9974ZM222.616 92.876H200.344C199.994 92.876 199.667 92.8137 199.368 92.6884C199.067 92.5633 198.804 92.3943 198.577 92.1812C198.365 91.9558 198.197 91.6929 198.071 91.3928C197.947 91.0921 197.883 90.7668 197.883 90.4158V65.9459H202.765V87.9934H222.616V92.876ZM271.923 81.6081C271.923 83.2484 271.637 84.7571 271.06 86.134C270.496 87.5117 269.714 88.7005 268.712 89.702C267.712 90.6915 266.522 91.4675 265.143 92.0311C263.767 92.5946 262.272 92.876 260.656 92.876H247.473C247.122 92.876 246.797 92.8137 246.496 92.6884C246.195 92.5633 245.932 92.3943 245.708 92.1812C245.494 91.9558 245.325 91.6929 245.201 91.3928C245.075 91.0921 245.013 90.7668 245.013 90.4158V68.4061C245.013 68.0674 245.075 67.7483 245.201 67.4481C245.325 67.1473 245.494 66.8845 245.708 66.6595C245.932 66.4336 246.195 66.2586 246.496 66.1335C246.797 66.0082 247.122 65.9459 247.473 65.9459H260.656C262.272 65.9459 263.767 66.2271 265.143 66.7908C266.522 67.3544 267.712 68.1367 268.712 69.1382C269.714 70.1272 270.496 71.3167 271.06 72.7061C271.637 74.0837 271.923 75.586 271.923 77.2138V81.6081ZM267.041 77.2138C267.041 76.2621 266.885 75.3919 266.571 74.6033C266.272 73.8144 265.84 73.1446 265.276 72.5936C264.712 72.0304 264.037 71.5986 263.248 71.2977C262.473 70.9851 261.607 70.8285 260.656 70.8285H249.896V87.9934H260.656C261.607 87.9934 262.473 87.8433 263.248 87.5424C264.037 87.2298 264.712 86.7979 265.276 86.2468C265.84 85.6833 266.272 85.0135 266.571 84.2374C266.885 83.4485 267.041 82.5721 267.041 81.6081V77.2138Z" fill="white"></path><path fill-rule="evenodd" clip-rule="evenodd" d="M32.4785 4.24343C28.8034 2.36314 24.5298 1.42314 19.6582 1.42314H0.0423584V46.2947H19.6582C24.5298 46.2947 28.8034 45.3546 32.4785 43.4743C36.1538 41.5942 39.0169 38.9873 41.0682 35.6537C43.1195 32.2777 44.1454 28.3463 44.1454 23.8592C44.1454 19.329 43.1195 15.3976 41.0682 12.0641C39.0169 8.7305 36.1538 6.12425 32.4785 4.24343ZM27.9915 37.3204C25.5556 38.6027 22.6495 39.2436 19.2735 39.2436H8.37623V8.47414H19.2735C22.6495 8.47414 25.5556 9.11559 27.9915 10.3973C30.4702 11.6796 32.3719 13.4746 33.6964 15.7821C35.064 18.047 35.7477 20.7396 35.7477 23.8592C35.7477 26.9357 35.064 29.628 33.6964 31.9362C32.3719 34.2438 30.4702 36.0383 27.9915 37.3204ZM61.4465 30.5912V46.2947H69.7799V30.4848L87.3443 1.42314H79.1391L65.8797 23.2517L52.7286 1.42314H43.8182L61.4465 30.5912ZM123.199 31.803L98.4556 1.42314H91.597V46.2947H99.8659V15.9147L124.609 46.2947H131.468V1.42314H123.199V31.803ZM171.981 35.91L176.441 46.2947H185.158L164.902 1.42314H156.697L136.505 46.2947H145.094L149.539 35.91H171.981ZM169.173 29.3717L160.739 9.73411L152.336 29.3717H169.173ZM214.889 31.1576L197.084 1.42314H190.225V46.2947H198.173V16.9532L212.917 41.1667H216.635L231.385 16.5657L231.442 46.2947H239.327L239.263 1.42314H232.404L214.889 31.1576ZM281.853 45.2693C284.801 46.3805 287.985 46.936 291.404 46.936C295.122 46.936 298.498 46.2947 301.532 45.013C304.567 43.7307 307.131 41.8718 309.225 39.4361L303.84 34.3076C302.216 36.1026 300.4 37.4486 298.391 38.3463C296.383 39.2007 294.204 39.6281 291.853 39.6281C289.502 39.6281 287.344 39.2437 285.378 38.4746C283.455 37.705 281.768 36.6152 280.314 35.2053C278.904 33.7948 277.793 32.1281 276.981 30.2051C276.212 28.2819 275.827 26.1667 275.827 23.8592C275.827 21.5515 276.212 19.4359 276.981 17.5129C277.793 15.5896 278.904 13.923 280.314 12.5129C281.768 11.1026 283.455 10.0127 285.378 9.24367C287.344 8.4741 289.502 8.0897 291.853 8.0897C294.204 8.0897 296.383 8.53859 298.391 9.4359C300.4 10.2906 302.216 11.5938 303.84 13.3464L309.225 8.28224C307.131 5.80357 304.567 3.94414 301.532 2.70533C298.498 1.42307 295.144 0.782364 291.468 0.782364C288.007 0.782364 284.823 1.35872 281.917 2.5129C279.011 3.62397 276.468 5.22646 274.289 7.3207C272.109 9.37201 270.421 11.8077 269.224 14.628C268.028 17.4489 267.43 20.5256 267.43 23.8592C267.43 27.1921 268.028 30.2694 269.224 33.0897C270.421 35.9101 272.088 38.3672 274.225 40.4615C276.404 42.5128 278.947 44.1153 281.853 45.2693ZM259.139 1.42314H250.806V46.2947H259.139V1.42314Z" fill="#38445E"></path><path fill-rule="evenodd" clip-rule="evenodd" d="M324.225 43.8953C347.748 28.202 383.602 18.5143 415.734 18.5143C434.498 18.5143 450.11 20.6398 464.134 24.5094V63.4274C449.573 58.9788 433.135 56.4732 415.736 56.4732C377.183 56.4732 343.356 68.766 324.225 87.264L336.061 56.3126L324.225 43.8953Z" fill="url(#paint0_radial_302_86)"></path><path fill-rule="evenodd" clip-rule="evenodd" d="M390.012 75.3391H423.279V96.2747H358.225V74.5497L381.004 54.7556C384.185 51.9903 387.337 49.1387 390.304 46.1432C392.321 44.1078 394.28 41.7988 395.671 39.2824C396.805 37.2329 397.402 35.0436 397.402 32.7003V32.0557C397.402 30.1976 397.05 28.3544 396.111 26.7331C395.163 25.0991 393.587 24.0597 391.871 23.3586C389.322 22.3167 386.138 22.076 383.411 22.076C379.164 22.076 374.959 22.6579 370.917 23.9818C367.324 25.1573 363.768 26.5525 360.394 28.265L358.684 29.1336L360.865 7.32952L361.359 7.06527C363.686 5.82107 366.156 4.80398 368.65 3.94345C371.652 2.90647 374.783 2.18918 377.911 1.65716C381.592 1.03066 385.339 0.782515 389.069 0.782515C397.688 0.782515 407.224 2.29966 413.901 8.20744C420.033 13.634 422.348 20.9979 422.348 29.048V30.0504C422.348 34.3029 421.738 38.5532 420.2 42.5331C418.674 46.4801 416.369 50.0436 413.619 53.2462C410.215 57.2127 406.274 60.8835 402.372 64.3532L390.012 75.3391ZM444.073 94.714C440.548 93.1538 437.288 90.9954 434.464 88.077C426.8 80.155 424.595 69.0078 424.595 58.3408V40.5067C424.595 29.8806 426.799 18.817 434.414 10.9153C437.245 7.97917 440.525 5.81417 444.073 4.2522V94.714Z" fill="white"></path><path d="M422.229 95.2247H359.275V75.0279L381.692 55.5475C385.464 52.2527 388.591 49.3642 391.05 46.8815C393.51 44.3984 395.348 42.0352 396.589 39.7909C397.83 37.547 398.451 35.1833 398.451 32.7007V32.0561C398.451 29.8119 397.974 27.8543 397.019 26.2073C396.064 24.5598 394.488 23.2945 392.268 22.3873C390.048 21.4803 387.087 21.0265 383.411 21.0265C378.875 21.0265 374.602 21.671 370.591 22.984C366.58 24.297 363.023 25.7534 359.92 27.3291L361.853 7.99181C363.907 6.8938 366.294 5.86703 368.992 4.93615C371.689 4.00502 374.721 3.26487 378.087 2.69187C381.454 2.11899 385.106 1.83234 389.069 1.83234C399.764 1.83234 407.809 4.21985 413.205 8.99426C418.6 13.7689 421.298 20.4535 421.298 29.048V30.0507C421.298 34.5389 420.606 38.5735 419.221 42.1545C417.836 45.7353 415.711 49.1971 412.823 52.5632C409.934 55.9294 406.21 59.6057 401.674 63.5689L388.138 75.6007V79.6831L378.541 76.3886H422.229V95.2247ZM463.387 97.2301C450.973 97.2301 441.591 93.9356 435.217 87.3467C428.842 80.7576 425.644 71.0889 425.644 58.3404V40.5071C425.644 27.8543 428.819 18.2336 435.169 11.6441C441.519 5.05523 450.925 1.76072 463.387 1.76072C475.849 1.76072 485.279 5.05523 491.653 11.6441C498.028 18.2336 501.203 27.8543 501.203 40.5071V58.3404C501.203 71.0889 498.028 80.7576 491.653 87.3467C485.279 93.9356 475.849 97.2301 463.387 97.2301ZM463.387 78.7522C468.592 78.7522 472.387 77.1049 474.775 73.8104C477.162 70.5158 478.356 65.6934 478.356 59.3432V39.6476C478.356 33.2497 477.162 28.4033 474.775 25.1326C472.387 21.8621 468.592 20.2389 463.387 20.2389C458.183 20.2389 454.411 21.8621 452.048 25.1326C449.684 28.4033 448.49 33.2497 448.49 39.6476V59.3432C448.49 65.6934 449.708 70.5158 452.119 73.8104C454.53 77.1049 458.278 78.7522 463.387 78.7522Z" fill="#ED1C24"></path><path fill-rule="evenodd" clip-rule="evenodd" d="M464.134 33.9967V24.5221L451.18 26.4992L464.134 33.9967Z" fill="#1A4B6E"></path><path fill-rule="evenodd" clip-rule="evenodd" d="M632.618 59.1543C606.566 76.5342 566.857 87.264 531.27 87.264C497.551 87.264 473.015 81.0681 450.291 70.4771C449.094 67.5217 448.491 63.8114 448.491 59.3432V39.6472C448.491 34.0878 449.394 29.7007 451.18 26.4996C472.389 38.1383 500.47 45.2239 531.268 45.2239C573.965 45.2239 611.43 31.6091 632.618 11.1226L619.509 45.4023L632.618 59.1543Z" fill="url(#paint1_radial_302_86)"></path><path d="M463.265 57.9644L461.347 57.3657L461.647 48.4453L463.698 49.0856L463.327 52.8968L463.068 55.0375L463.183 55.0742L464.188 53.1657L466.024 49.8123L468.076 50.4525L463.265 57.9644ZM462.322 61.1097L460.341 60.4915L461.955 55.3238L463.935 55.9423L462.322 61.1097ZM468.287 63.5154C467.212 63.2378 466.483 62.7388 466.096 62.017C465.709 61.2958 465.666 60.3493 465.969 59.1786L466.621 56.6567C466.899 55.5822 467.341 54.8255 467.947 54.3893C468.553 53.9536 469.333 53.8606 470.288 54.1078C470.906 54.2678 471.387 54.5236 471.729 54.8744C472.071 55.2253 472.278 55.6637 472.352 56.1921C472.427 56.7204 472.374 57.3318 472.196 58.022L471.989 58.8234C471.922 59.0816 471.85 59.3353 471.769 59.5835C471.69 59.8315 471.594 60.079 471.485 60.3266L469.683 59.8608C469.823 59.3204 469.946 58.846 470.052 58.4378C470.157 58.0295 470.253 57.6603 470.338 57.3299C470.419 57.0179 470.459 56.7527 470.457 56.5373C470.456 56.3227 470.405 56.1531 470.311 56.0256C470.215 55.8986 470.065 55.8088 469.861 55.7559C469.555 55.6767 469.311 55.7287 469.128 55.9155C468.945 56.1019 468.793 56.431 468.672 56.8993L468.246 58.547L468.169 58.8824L467.903 59.9092C467.833 60.1792 467.809 60.4199 467.828 60.6327C467.847 60.8458 467.91 61.0356 468.019 61.1977C468.127 61.3601 468.277 61.4984 468.467 61.6149C468.658 61.7319 468.89 61.8271 469.166 61.8984C469.502 61.9856 469.834 62.0264 470.16 62.0207C470.484 62.0143 470.789 61.9783 471.075 61.9114L470.511 63.5718C470.215 63.6493 469.876 63.6863 469.493 63.6833C469.109 63.6795 468.707 63.6247 468.287 63.5154ZM471.034 60.21L467.306 59.2458L467.688 57.7689L471.417 58.7331L471.034 60.21ZM476.989 66.2004L474.99 65.7599L475.448 64.0702L475.367 64.0522L476.197 60.2821L476.288 59.7406C476.4 59.2318 476.395 58.8402 476.271 58.5654C476.148 58.29 475.858 58.1026 475.405 58.0026C475.035 57.9213 474.66 57.9054 474.28 57.9578C473.9 58.0111 473.547 58.0884 473.22 58.188L473.743 56.4649C473.95 56.3896 474.182 56.33 474.439 56.2883C474.696 56.246 474.977 56.2255 475.278 56.2255C475.58 56.2255 475.89 56.2619 476.211 56.3325C476.707 56.4418 477.12 56.6024 477.445 56.8139C477.77 57.0252 478.016 57.2858 478.186 57.5996C478.355 57.9129 478.449 58.28 478.47 58.7006C478.492 59.1214 478.444 59.5965 478.328 60.1232L476.989 66.2004ZM473.245 65.5088C472.621 65.3716 472.205 65.0574 471.992 64.566C471.78 64.0745 471.761 63.426 471.939 62.6204L472.045 62.1391C472.222 61.3338 472.539 60.7779 472.99 60.4706C473.442 60.1644 474.089 59.9929 474.936 59.9567L476.504 59.8832L476.398 61.4033L475.143 61.4789C474.828 61.4984 474.585 61.5781 474.41 61.7207C474.236 61.8633 474.112 62.0963 474.041 62.417L473.971 62.7347C473.892 63.0923 473.889 63.3803 473.957 63.6022C474.026 63.8237 474.201 63.967 474.486 64.0296C474.649 64.0658 474.798 64.0543 474.931 63.9946C475.065 63.9352 475.187 63.8415 475.294 63.7158C475.402 63.5903 475.489 63.4412 475.559 63.266L475.563 64.372L475.29 64.312C475.164 64.5953 475.015 64.8418 474.837 65.0535C474.661 65.2656 474.444 65.4147 474.187 65.5005C473.93 65.5866 473.615 65.5896 473.245 65.5088ZM481.32 61.9595L480.985 60.0939L481.516 60.1893C481.71 59.6005 481.983 59.155 482.33 58.8554C482.677 58.5554 483.135 58.4587 483.709 58.5622C483.746 58.5686 483.779 58.575 483.809 58.5832C483.839 58.5921 483.878 58.6049 483.925 58.6198L483.557 60.9827C483.516 60.9628 483.463 60.9437 483.393 60.9281C483.323 60.9121 483.247 60.8987 483.168 60.8839C482.759 60.8105 482.393 60.8612 482.069 61.0391C481.744 61.2169 481.493 61.5244 481.32 61.9595ZM480.341 67.4921L478.272 67.1193L479.924 57.9557L481.828 58.2988L481.286 60.7337L481.518 60.9646L480.341 67.4921ZM485.062 68.9516C484.621 68.881 484.237 68.7664 483.908 68.607C483.578 68.4482 483.304 68.2788 483.088 68.0993L483.261 66.1866C483.516 66.3973 483.788 66.5851 484.072 66.7527C484.356 66.9206 484.68 67.035 485.047 67.0932C485.384 67.1471 485.638 67.1096 485.807 66.9792C485.975 66.8494 486.079 66.6492 486.122 66.3795L486.147 66.2233C486.177 66.0397 486.168 65.8751 486.122 65.7329C486.075 65.5903 485.972 65.4295 485.81 65.2496C485.647 65.0698 485.403 64.8425 485.083 64.5653C484.746 64.2794 484.483 63.9956 484.293 63.7136C484.102 63.4321 483.978 63.1329 483.921 62.8165C483.865 62.4995 483.868 62.1452 483.93 61.7533L483.957 61.5881C484.082 60.8042 484.401 60.2369 484.913 59.8847C485.424 59.5332 486.104 59.425 486.955 59.561C487.378 59.6284 487.743 59.7403 488.051 59.8988C488.358 60.0577 488.603 60.2321 488.787 60.4185L488.642 62.2136C488.428 62.0217 488.192 61.8462 487.932 61.6885C487.671 61.5307 487.367 61.426 487.024 61.3711C486.804 61.336 486.622 61.3384 486.474 61.3801C486.325 61.4228 486.209 61.5013 486.125 61.6135C486.041 61.7256 485.985 61.8675 485.957 62.0387L485.941 62.1393C485.91 62.3359 485.928 62.5114 485.998 62.667C486.067 62.8227 486.184 62.979 486.346 63.1404C486.509 63.3012 486.714 63.4911 486.962 63.706C487.306 63.9938 487.579 64.2692 487.781 64.5374C487.984 64.8048 488.118 65.1002 488.184 65.4179C488.249 65.7361 488.245 66.1154 488.175 66.5561L488.14 66.7766C488.008 67.6032 487.689 68.209 487.181 68.5926C486.675 68.9765 485.968 69.096 485.062 68.9516ZM494.622 70.9969C493.63 70.8817 492.915 70.505 492.477 69.8705C492.038 69.2361 491.884 68.3694 492.011 67.2666L492.339 64.439C492.468 63.33 492.818 62.5182 493.389 62.0073C493.961 61.4958 494.742 61.2993 495.734 61.4145C496.719 61.5288 497.432 61.8986 497.868 62.5267C498.304 63.1548 498.455 64.0245 498.327 65.1334L497.999 67.9614C497.871 69.0639 497.524 69.8727 496.955 70.3903C496.387 70.9078 495.608 71.1112 494.622 70.9969ZM494.82 69.2872C495.147 69.3251 495.394 69.2326 495.561 69.0077C495.728 68.7838 495.838 68.4222 495.896 67.9231L496.272 64.6797C496.33 64.1871 496.305 63.8129 496.193 63.5592C496.082 63.3061 495.862 63.1621 495.535 63.1242C495.196 63.0848 494.946 63.1745 494.78 63.3952C494.613 63.6164 494.5 63.975 494.443 64.4676L494.067 67.711C494.009 68.2097 494.037 68.5876 494.148 68.8442C494.258 69.1004 494.482 69.2481 494.82 69.2872ZM502.268 59.305C502.626 59.3381 502.941 59.4015 503.212 59.496C503.484 59.5894 503.708 59.6881 503.885 59.792L503.888 61.3711C503.763 61.3096 503.622 61.2498 503.465 61.1948C503.308 61.1391 503.128 61.1036 502.924 61.0847C502.695 61.0634 502.501 61.0835 502.34 61.1427C502.178 61.2021 502.051 61.2994 501.957 61.4369C501.863 61.5741 501.806 61.7499 501.787 61.9598L501.784 61.9878C501.767 62.1666 501.774 62.329 501.804 62.4749C501.834 62.6214 501.876 62.7687 501.931 62.9171L500.562 62.7702L500.582 62.5484C500.353 62.4021 500.167 62.1922 500.022 61.9201C499.876 61.6475 499.817 61.337 499.85 60.9849L499.854 60.9389C499.908 60.3584 500.142 59.922 500.555 59.6338C500.968 59.3454 501.539 59.2369 502.268 59.305ZM501.182 71.8531L499.107 71.6595L499.899 63.1664L501.974 63.3598L501.182 71.8531ZM503.455 64.6098L498.898 64.1846L499.057 62.4807L500.898 62.6714L501.678 62.7254L503.743 62.9179L503.455 64.6098ZM509.72 60.9133L509.172 72.7891L507.007 72.6891L507.555 60.8137L509.72 60.9133ZM508.364 72.7518L508.453 70.8188L511.779 70.9723L511.69 72.9049L508.364 72.7518ZM515.48 73.5294C514.37 73.5053 513.546 73.1868 513.004 72.5737C512.462 71.9602 512.203 71.049 512.229 69.8398L512.285 67.2359C512.309 66.1262 512.566 65.2881 513.055 64.7245C513.545 64.1615 514.283 63.8918 515.269 63.9131C515.907 63.9269 516.435 64.0654 516.848 64.3286C517.261 64.5921 517.563 64.971 517.756 65.4679C517.951 65.9652 518.04 66.5721 518.025 67.285L518.006 68.1128C518.001 68.3795 517.989 68.6426 517.968 68.9024C517.947 69.1627 517.91 69.4257 517.861 69.691L516.001 69.6512C516.012 69.0931 516.024 68.6032 516.033 68.1816C516.042 67.7602 516.05 67.3789 516.057 67.0378C516.065 66.7158 516.042 66.4484 515.991 66.2395C515.94 66.0307 515.853 65.8765 515.731 65.7747C515.609 65.6731 515.443 65.6199 515.232 65.6155C514.916 65.6091 514.69 65.7151 514.555 65.9388C514.42 66.1621 514.347 66.517 514.337 67.0009L514.3 68.7027L514.301 69.0469L514.279 70.1073C514.273 70.3864 514.305 70.6259 514.372 70.8289C514.439 71.032 514.544 71.2017 514.687 71.3345C514.829 71.468 515.007 71.568 515.22 71.6382C515.432 71.7077 515.68 71.7471 515.965 71.7533C516.312 71.7609 516.644 71.7246 516.959 71.6443C517.274 71.5639 517.562 71.4589 517.825 71.3279L517.657 73.0736C517.387 73.2168 517.066 73.3308 516.692 73.4156C516.318 73.5006 515.914 73.5385 515.48 73.5294ZM517.396 69.6813L513.546 69.5985L513.579 68.0729L517.429 68.1562L517.396 69.6813ZM521.828 71.2816C520.942 71.2855 520.233 71.0494 519.705 70.5741C519.175 70.0982 518.909 69.3925 518.905 68.4562L518.901 67.3495C518.898 66.7664 518.996 66.2515 519.189 65.8037C519.383 65.3565 519.701 64.9989 520.146 64.7336C520.592 64.468 521.189 64.3203 521.94 64.2859L525.102 64.1338L525.108 65.7615L523.108 65.6952L523.108 65.7881C523.455 65.849 523.741 65.9623 523.962 66.1323C524.183 66.3018 524.348 66.5273 524.458 66.8056C524.568 67.0846 524.622 67.4223 524.623 67.8192L524.626 68.5908C524.63 69.4472 524.396 70.1086 523.927 70.5752C523.458 71.0425 522.758 71.2781 521.828 71.2816ZM521.752 75.4863L522.115 75.4851C522.394 75.4841 522.623 75.4521 522.8 75.3923C522.976 75.3327 523.106 75.2454 523.192 75.1304C523.279 75.0153 523.322 74.8785 523.321 74.7179V74.699C523.32 74.4753 523.242 74.3052 523.083 74.1916C522.925 74.0772 522.691 73.9911 522.388 73.9302L521.066 73.6755L521.475 73.6742C521.277 73.7245 521.11 73.7905 520.971 73.8747C520.831 73.9594 520.723 74.0651 520.649 74.1892C520.575 74.3136 520.539 74.4592 520.539 74.6271V74.636C520.54 74.8151 520.587 74.9672 520.678 75.0943C520.768 75.2213 520.902 75.3197 521.079 75.387C521.256 75.4546 521.479 75.4879 521.752 75.4863ZM522.047 77.141L521.637 77.1423C521.03 77.1448 520.509 77.0756 520.071 76.9381C519.633 76.8002 519.298 76.5939 519.064 76.3159C518.83 76.0373 518.711 75.6819 518.709 75.2473V75.2101C518.708 74.8629 518.778 74.5777 518.92 74.3537C519.061 74.1301 519.253 73.9523 519.494 73.8238C519.735 73.6957 520.011 73.611 520.321 73.5664L520.321 73.4826C519.911 73.3976 519.597 73.2534 519.376 73.0526C519.155 72.8518 519.042 72.5829 519.041 72.2412V72.2231C519.04 71.9871 519.095 71.7885 519.203 71.6303C519.311 71.4717 519.466 71.347 519.669 71.2557C519.874 71.1653 520.116 71.1117 520.395 71.0921L520.394 70.8221L521.744 71.2445L521.503 71.2456C521.335 71.2463 521.202 71.2746 521.103 71.3339C521.004 71.3936 520.954 71.4802 520.955 71.592V71.6009C520.956 71.7309 521.012 71.8268 521.124 71.8917C521.236 71.9564 521.407 72.0146 521.636 72.0635L522.958 72.3552C523.746 72.5261 524.312 72.7931 524.654 73.1611C524.997 73.5281 525.17 74.049 525.173 74.7185V74.8025C525.175 75.3048 525.052 75.7267 524.806 76.0719C524.559 76.4173 524.203 76.6818 523.736 76.8639C523.269 77.0456 522.704 77.1382 522.047 77.141ZM521.803 69.7559C522.008 69.7552 522.172 69.7023 522.295 69.5987C522.419 69.496 522.508 69.3444 522.563 69.142C522.619 68.9404 522.645 68.6954 522.644 68.404L522.639 67.2224C522.638 66.9372 522.609 66.6955 522.552 66.4975C522.496 66.2992 522.405 66.1475 522.281 66.0459C522.157 65.9438 521.995 65.895 521.797 65.8957H521.778C521.573 65.8968 521.406 65.9467 521.276 66.0465C521.146 66.1461 521.054 66.2959 520.996 66.4943C520.938 66.693 520.908 66.9416 520.909 67.2388L520.914 68.4114C520.915 68.7027 520.947 68.9474 521.008 69.1489C521.067 69.3502 521.16 69.5015 521.291 69.6031C521.422 69.7052 521.593 69.7569 521.803 69.7559ZM531.203 73.5823L529.158 73.6434L529.189 71.8933L529.105 71.8959L528.989 68.0372L528.944 67.4895C528.929 66.9687 528.828 66.5906 528.641 66.3543C528.454 66.1176 528.128 66.0065 527.663 66.0205C527.285 66.032 526.918 66.1081 526.562 66.2523C526.207 66.3963 525.883 66.558 525.591 66.7342L525.676 64.9355C525.858 64.8121 526.069 64.6974 526.308 64.5942C526.546 64.4907 526.814 64.4017 527.106 64.3279C527.399 64.254 527.708 64.2139 528.036 64.2041C528.545 64.1885 528.984 64.2435 529.351 64.3688C529.717 64.4948 530.021 64.6869 530.262 64.95C530.502 65.2125 530.682 65.5453 530.806 65.9479C530.93 66.3503 531 66.8229 531.016 67.3621L531.203 73.5823ZM527.405 73.8266C526.766 73.8454 526.285 73.6428 525.959 73.2186C525.633 72.7938 525.456 72.1695 525.431 71.3453L525.417 70.8525C525.392 70.028 525.562 69.4121 525.925 69.0038C526.288 68.596 526.874 68.2713 527.686 68.0295L529.189 67.575L529.458 69.0744L528.259 69.4547C527.958 69.5506 527.742 69.6871 527.608 69.8684C527.474 70.049 527.41 70.3055 527.42 70.6338L527.43 70.9593C527.441 71.3252 527.509 71.6055 527.629 71.8035C527.75 72.0015 527.955 72.0978 528.246 72.0891C528.414 72.084 528.555 72.0366 528.67 71.9461C528.785 71.8556 528.881 71.7347 528.954 71.5871C529.027 71.4388 529.074 71.2729 529.1 71.0863L529.374 72.1571L529.095 72.166C529.043 72.4722 528.958 72.7476 528.837 72.9962C528.718 73.2449 528.544 73.4423 528.316 73.5887C528.088 73.7352 527.783 73.8154 527.405 73.8266ZM535.218 73.5566C534.265 73.6113 533.548 73.3569 533.069 72.7978C532.59 72.2375 532.32 71.4268 532.259 70.3621L532.097 67.5203C532.036 66.4555 532.212 65.6163 532.624 65.0024C533.036 64.389 533.716 64.0549 534.663 64.001C534.899 63.9876 535.116 63.9934 535.317 64.0228C535.517 64.0518 535.703 64.097 535.874 64.1585C536.046 64.2201 536.195 64.2956 536.325 64.3814L536.564 66.1287C536.39 66.0205 536.205 65.9319 536.009 65.8657C535.812 65.7988 535.59 65.7745 535.343 65.7885C534.891 65.8142 534.58 65.9718 534.41 66.2608C534.24 66.55 534.17 66.9485 534.199 67.4562L534.353 70.1497C534.382 70.6513 534.505 71.032 534.726 71.2961C534.945 71.5599 535.285 71.6805 535.743 71.6541C535.984 71.6406 536.202 71.5876 536.396 71.4988C536.589 71.4102 536.764 71.3037 536.918 71.1775L536.89 72.9864C536.707 73.1394 536.472 73.2679 536.182 73.3714C535.894 73.4748 535.571 73.5367 535.218 73.5566ZM540.441 71.2911L541.563 71.1959L540.582 71.4003L541 63.6912L543.094 63.5132L542.027 76.216L540.016 76.3872L540.407 72.0971L541.518 72.6468L539.025 72.8585L536.819 64.0466L538.914 63.8686L540.441 71.2911ZM550.007 72.1665L547.909 72.4046L546.859 63.153L548.956 62.9146L550.007 72.1665ZM547.803 62.1564C547.427 62.1987 547.138 62.1285 546.936 61.9458C546.735 61.7623 546.614 61.4956 546.574 61.1445L546.563 61.0425C546.523 60.691 546.581 60.4037 546.736 60.1832C546.893 59.9624 547.159 59.8328 547.534 59.7898C547.917 59.7464 548.208 59.8133 548.409 59.9936C548.611 60.1735 548.732 60.4402 548.772 60.7916L548.783 60.8937C548.823 61.2447 548.765 61.5318 548.609 61.7558C548.454 61.9791 548.185 62.1127 547.803 62.1564ZM557.428 71.1817L555.331 71.4199L554.608 65.0517C554.576 64.7745 554.525 64.5428 554.452 64.3611C554.378 64.1792 554.275 64.047 554.147 63.9648C554.02 63.8827 553.851 63.8553 553.641 63.8792C553.469 63.8983 553.323 63.9555 553.203 64.0532C553.083 64.1516 552.992 64.2804 552.924 64.4378C552.858 64.595 552.816 64.7712 552.801 64.9667L552.249 63.8965L552.711 63.844C552.738 63.5353 552.809 63.2493 552.923 62.9899C553.037 62.73 553.215 62.5165 553.455 62.346C553.694 62.1752 554.016 62.067 554.423 62.0207C554.879 61.9692 555.26 62.0258 555.566 62.1937C555.872 62.362 556.115 62.6366 556.296 63.0189C556.477 63.401 556.601 63.8892 556.668 64.481L557.428 71.1817ZM553.584 71.6183L551.495 71.8553L550.445 62.6033L552.515 62.3685L552.629 64.1154L552.735 64.1412L553.584 71.6183ZM563.993 69.809L561.922 70.1688L559.887 58.4562L561.958 58.0965L563.993 69.809ZM566.761 69.3284L563.26 69.9364L562.934 68.0577L566.434 67.4493L566.761 69.3284ZM565.801 64.2928L562.429 64.8787L562.11 63.0456L565.483 62.4597L565.801 64.2928ZM565.049 59.476L561.539 60.0859L561.216 58.2254L564.726 57.6154L565.049 59.476ZM569.946 68.6658C569.216 68.8149 568.64 68.6422 568.213 68.1508C567.786 67.6592 567.461 66.8804 567.242 65.8114L566.677 63.0594C566.45 61.9537 566.434 61.0869 566.628 60.458C566.822 59.8301 567.289 59.4395 568.03 59.2872C568.394 59.2122 568.706 59.218 568.965 59.3074C569.224 59.3971 569.445 59.5478 569.625 59.7609C569.804 59.9741 569.958 60.227 570.086 60.5173L570.606 60.4109L570.477 61.957C570.419 61.671 570.335 61.4319 570.226 61.2419C570.117 61.0526 569.985 60.918 569.826 60.8365C569.667 60.7554 569.477 60.7377 569.258 60.7825C568.942 60.8474 568.745 61.0142 568.664 61.2837C568.584 61.5538 568.593 61.9381 568.695 62.4362L569.318 65.4705C569.418 65.9564 569.56 66.3071 569.74 66.5265C569.922 66.7458 570.169 66.8247 570.485 66.7599C570.667 66.7226 570.813 66.648 570.924 66.5403C571.035 66.432 571.118 66.2978 571.17 66.1349C571.222 65.9724 571.246 65.7966 571.245 65.6065L571.784 66.6166L571.402 66.6947C571.409 67.0042 571.37 67.2937 571.284 67.5673C571.197 67.8416 571.049 68.0751 570.838 68.264C570.627 68.453 570.328 68.5869 569.946 68.6658ZM573.774 67.7468L571.732 68.1656L571.444 66.3921L571.364 66.2757L570.297 61.0819L570.25 60.8068L569.702 58.3176L569.241 56.0759L571.292 55.655L573.774 67.7468ZM572.898 58.0154L574.952 57.5268L576.436 63.7614C576.501 64.0329 576.582 64.2526 576.676 64.4244C576.772 64.5964 576.889 64.7152 577.029 64.7803C577.169 64.8462 577.335 64.8577 577.527 64.8117C577.709 64.7687 577.852 64.6898 577.956 64.5758C578.059 64.4617 578.135 64.3232 578.182 64.1621C578.23 64.0007 578.246 63.8248 578.231 63.6308L578.917 64.6246L578.465 64.7321C578.475 65.0419 578.438 65.3311 578.356 65.6025C578.274 65.8739 578.127 66.1099 577.912 66.3075C577.698 66.5052 577.389 66.6522 576.984 66.7484C576.544 66.853 576.161 66.8388 575.834 66.7096C575.507 66.5802 575.229 66.3373 575.003 65.9797C574.778 65.6224 574.597 65.1555 574.459 64.5765L572.898 58.0154ZM576.662 57.1197L578.708 56.6329L580.863 65.6909L578.837 66.1732L578.513 64.453L578.405 64.44L576.662 57.1197ZM584.781 64.3728C583.851 64.5935 583.102 64.4694 582.532 64.0028C581.962 63.5357 581.554 62.7853 581.307 61.7477L580.647 58.9784C580.401 57.9408 580.426 57.0838 580.724 56.4073C581.022 55.7309 581.633 55.2829 582.555 55.0632C582.785 55.0085 583 54.976 583.202 54.9699C583.405 54.9635 583.596 54.975 583.775 55.0054C583.955 55.0357 584.116 55.0835 584.258 55.1454L584.801 56.8236C584.61 56.748 584.413 56.6926 584.208 56.6618C584.003 56.6307 583.78 56.6459 583.539 56.7035C583.098 56.808 582.82 57.0179 582.704 57.3321C582.587 57.6466 582.588 58.0512 582.705 58.5459L583.33 61.1701C583.446 61.6591 583.635 62.0124 583.898 62.2334C584.161 62.4546 584.516 62.5136 584.963 62.4076C585.198 62.3516 585.403 62.261 585.578 62.1397C585.753 62.0185 585.906 61.8832 586.035 61.7311L586.327 63.5168C586.173 63.7003 585.963 63.8679 585.697 64.0206C585.431 64.1733 585.125 64.2909 584.781 64.3728ZM592.622 61.671L590.647 62.2074L590.27 60.4981L590.189 60.5201L589.177 56.7943L589.006 56.2724C588.869 55.7698 588.683 55.4252 588.446 55.2391C588.209 55.0523 587.866 55.0206 587.417 55.1425C587.052 55.2417 586.713 55.4009 586.401 55.6239C586.089 55.8472 585.811 56.0802 585.568 56.3195L585.232 54.5504C585.38 54.3879 585.559 54.227 585.767 54.0709C585.975 53.9145 586.214 53.7661 586.481 53.6261C586.749 53.486 587.04 53.375 587.357 53.2888C587.848 53.1552 588.288 53.1065 588.674 53.1434C589.059 53.1795 589.399 53.296 589.694 53.4958C589.99 53.6949 590.243 53.9764 590.457 54.339C590.671 54.7017 590.85 55.1451 590.991 55.6655L592.622 61.671ZM588.985 62.7944C588.369 62.9617 587.854 62.8763 587.438 62.54C587.022 62.2028 586.704 61.6371 586.488 60.8409L586.358 60.3653C586.142 59.5691 586.165 58.9303 586.422 58.4486C586.681 57.9673 587.175 57.5156 587.908 57.0911L589.264 56.2989L589.874 57.6943L588.798 58.3437C588.527 58.5072 588.349 58.6903 588.261 58.8974C588.172 59.1044 588.17 59.3685 588.256 59.6859L588.341 59.9997C588.437 60.353 588.568 60.6099 588.731 60.7743C588.895 60.939 589.116 60.9849 589.398 60.9085C589.56 60.8647 589.686 60.7851 589.777 60.6707C589.867 60.556 589.932 60.4163 589.969 60.2552C590.005 60.0942 590.013 59.922 589.995 59.7341L590.511 60.7121L590.241 60.7851C590.261 61.0946 590.243 61.3822 590.184 61.6523C590.126 61.9219 590.003 62.1547 589.815 62.35C589.628 62.5459 589.35 62.6952 588.985 62.7944ZM596.213 60.0838C595.727 60.2329 595.303 60.2686 594.941 60.1952C594.578 60.1216 594.269 59.9404 594.015 59.649C593.76 59.3574 593.555 58.9661 593.404 58.4739L591.433 52.0438L593.407 51.4383L595.234 57.3972C595.334 57.7233 595.474 57.9336 595.648 58.0288C595.823 58.1247 596.061 58.1262 596.363 58.034C596.523 57.9852 596.669 57.9211 596.798 57.8426C596.926 57.7641 597.043 57.68 597.151 57.5881L597.541 59.3365C597.398 59.4842 597.217 59.6213 596.994 59.7509C596.771 59.8812 596.51 59.9932 596.213 60.0838ZM595.284 52.3229L590.988 53.6398L590.489 52.012L594.909 50.6567L595.284 52.3229ZM593.31 51.3127L591.416 51.8937L590.758 49.75L592.643 48.8806L593.31 51.3127ZM600.559 57.9716L598.54 58.5904L595.811 49.6881L597.829 49.0692L600.559 57.9716ZM596.556 48.535C596.195 48.6459 595.898 48.63 595.666 48.487C595.434 48.344 595.267 48.1032 595.163 47.7657L595.133 47.6679C595.029 47.3299 595.033 47.0368 595.146 46.7914C595.259 46.546 595.497 46.3695 595.859 46.2583C596.226 46.1458 596.525 46.1576 596.756 46.2977C596.987 46.4377 597.155 46.6781 597.259 47.0161L597.289 47.1138C597.392 47.4515 597.388 47.745 597.276 47.9937C597.164 48.2419 596.924 48.4222 596.556 48.535ZM604.653 56.7078C603.708 57.031 602.901 56.9991 602.232 56.6159C601.563 56.2322 601.049 55.5171 600.69 54.4668L599.767 51.7741C599.405 50.7181 599.371 49.8346 599.666 49.1272C599.962 48.4196 600.582 47.9057 601.526 47.5818C602.465 47.2605 603.267 47.2867 603.931 47.6657C604.595 48.0442 605.107 48.7638 605.469 49.8202L606.392 52.5133C606.752 53.5628 606.788 54.4418 606.497 55.1545C606.207 55.8667 605.592 56.3861 604.653 56.7078ZM604.095 55.0795C604.406 54.9728 604.59 54.7825 604.644 54.5081C604.697 54.2337 604.641 53.8602 604.478 53.3846L603.42 50.2958C603.259 49.8271 603.075 49.4995 602.865 49.319C602.656 49.1383 602.395 49.1036 602.084 49.21C601.761 49.3203 601.574 49.5093 601.519 49.78C601.464 50.0514 601.517 50.4239 601.677 50.8929L602.736 53.9819C602.899 54.457 603.087 54.786 603.297 54.9695C603.508 55.1534 603.773 55.1902 604.095 55.0795ZM614.134 52.3898L612.16 53.14L609.882 47.1497C609.783 46.8887 609.676 46.6774 609.56 46.5192C609.443 46.3614 609.311 46.2586 609.167 46.2109C609.023 46.1627 608.852 46.1779 608.655 46.2529C608.493 46.3144 608.366 46.406 608.273 46.5305C608.181 46.6553 608.125 46.8026 608.099 46.9719C608.074 47.1406 608.077 47.3219 608.109 47.5148L607.31 46.6148L607.745 46.4497C607.694 46.1436 607.692 45.8493 607.738 45.5695C607.785 45.2898 607.905 45.0383 608.094 44.8138C608.284 44.5891 608.569 44.4042 608.952 44.2591C609.381 44.0958 609.764 44.0561 610.102 44.1436C610.44 44.2305 610.744 44.4364 611.014 44.7618C611.284 45.0871 611.525 45.5297 611.736 46.086L614.134 52.3898ZM610.516 53.7654L608.551 54.5124L605.242 45.8092L607.19 45.0683L607.733 46.7328L607.842 46.7315L610.516 53.7654Z" fill="white"></path><path fill-rule="evenodd" clip-rule="evenodd" d="M526.525 29.8534C518.035 33.3028 513.86 35.7461 505.996 39.9038C500.871 42.613 515.051 26.0608 526.395 21.546C540.585 15.898 549.359 20.6344 528.643 28.9981L526.525 29.8534Z" fill="url(#paint2_radial_302_86)"></path><path fill-rule="evenodd" clip-rule="evenodd" d="M522.907 40.343C516.479 40.4563 513.13 41.001 506.933 41.7357C502.894 42.2145 516.355 34.9628 524.92 34.873C535.634 34.7606 540.18 40.0767 524.51 40.3184L522.907 40.343Z" fill="url(#paint3_radial_302_86)"></path><path fill-rule="evenodd" clip-rule="evenodd" d="M433.674 94.0824C438.452 96.0237 440.801 97.3987 445.227 99.7384C448.111 101.263 440.131 91.9482 433.747 89.4072C425.761 86.2289 420.824 88.8944 432.482 93.6011L433.674 94.0824Z" fill="url(#paint4_radial_302_86)"></path><path fill-rule="evenodd" clip-rule="evenodd" d="M435.71 99.9858C439.328 100.049 441.213 100.356 444.7 100.77C446.973 101.039 439.397 96.958 434.577 96.9073C428.548 96.844 425.989 99.8359 434.808 99.972L435.71 99.9858Z" fill="url(#paint5_radial_302_86)"></path><defs><radialGradient id="paint0_radial_302_86" cx="0" cy="0" r="1" gradientUnits="userSpaceOnUse" gradientTransform="translate(367.296 45.3871) rotate(-5.5996) scale(11.3385 51.8877)"><stop stop-color="#00ADEF"></stop><stop offset="1" stop-color="#2E80B2"></stop></radialGradient><radialGradient id="paint1_radial_302_86" cx="0" cy="0" r="1" gradientUnits="userSpaceOnUse" gradientTransform="translate(505.173 66.2131) rotate(-175.958) scale(22.1637 101.433)"><stop stop-color="#00ADEF"></stop><stop offset="1" stop-color="#2E80B2"></stop></radialGradient><radialGradient id="paint2_radial_302_86" cx="0" cy="0" r="1" gradientUnits="userSpaceOnUse" gradientTransform="translate(516.002 27.3384) rotate(-6.67421) scale(2.92401 15.9062)"><stop stop-color="#00ADEF"></stop><stop offset="1" stop-color="#2E80B2"></stop></radialGradient><radialGradient id="paint3_radial_302_86" cx="0" cy="0" r="1" gradientUnits="userSpaceOnUse" gradientTransform="translate(516.655 36.039) rotate(14.4282) scale(2.05131 11.1589)"><stop stop-color="#00ADEF"></stop><stop offset="1" stop-color="#2E80B2"></stop></radialGradient><radialGradient id="paint4_radial_302_86" cx="0" cy="0" r="1" gradientUnits="userSpaceOnUse" gradientTransform="translate(439.596 92.667) rotate(-173.326) scale(1.64554 8.95149)"><stop stop-color="#00ADEF"></stop><stop offset="1" stop-color="#2E80B2"></stop></radialGradient><radialGradient id="paint5_radial_302_86" cx="0" cy="0" r="1" gradientUnits="userSpaceOnUse" gradientTransform="translate(439.229 97.5637) rotate(165.572) scale(1.15441 6.27985)"><stop stop-color="#00ADEF"></stop><stop offset="1" stop-color="#2E80B2"></stop></radialGradient></defs></svg>